<svg xmlns="http://www.w3.org/2000/svg" width="2443.459" height="1647" viewBox="0 0 2443.459 1647">
  <defs>
    <style>
      .cls-1, .cls-6 {
        fill: #c77cff;
      }

      .cls-1 {
        font-size: 619px;
        font-family: SegoeUI, Segoe UI;
      }

      .cls-2 {
        font-family: Scriptina-Alternates, Scriptina - Alternates;
      }

      .cls-3 {
        fill: #8f00fa;
      }

      .cls-4 {
        fill: #b04afd;
      }

      .cls-5 {
        fill: #cc89ff;
      }

      .cls-6 {
        stroke: #fff;
        stroke-linejoin: round;
        stroke-width: 0.5px;
      }
    </style>
  </defs>
  <g id="Group_11" data-name="Group 11" transform="translate(-661.846 1262.55)">
    <text id="B-HUB" class="cls-1" transform="translate(1170.304 -42.55)"><tspan x="0" y="0">B-</tspan><tspan class="cls-2" y="0">H</tspan><tspan y="0">UB</tspan></text>
    <g id="Group_10" data-name="Group 10" transform="translate(662.096 -486.05)">
      <g id="Group_9" data-name="Group 9" transform="translate(26.804 0)">
        <path id="Icon_awesome-money-check-alt" data-name="Icon awesome-money-check-alt" class="cls-3" d="M222.669,0H11.719A11.721,11.721,0,0,0,0,11.719V152.352a11.721,11.721,0,0,0,11.719,11.719H222.669a11.721,11.721,0,0,0,11.719-11.719V11.719A11.721,11.721,0,0,0,222.669,0ZM64.457,108.361v5.9a2.929,2.929,0,0,1-2.93,2.93h-5.86a2.929,2.929,0,0,1-2.93-2.93V108.3a20.97,20.97,0,0,1-11.489-4.157A2.934,2.934,0,0,1,41.04,99.7l4.3-4.105a3.006,3.006,0,0,1,3.71-.267,8.817,8.817,0,0,0,4.7,1.362H64.043a4.6,4.6,0,0,0,4.322-4.831,4.781,4.781,0,0,0-3.212-4.662l-16.48-4.944A16.574,16.574,0,0,1,37.107,66.357,16.309,16.309,0,0,1,52.734,49.851v-5.9a2.929,2.929,0,0,1,2.93-2.93h5.86a2.929,2.929,0,0,1,2.93,2.93v5.966A20.942,20.942,0,0,1,75.942,54.07a2.934,2.934,0,0,1,.209,4.446l-4.3,4.105a3.006,3.006,0,0,1-3.71.267,8.785,8.785,0,0,0-4.7-1.362H53.148a4.6,4.6,0,0,0-4.322,4.831,4.781,4.781,0,0,0,3.212,4.662l16.48,4.944A16.574,16.574,0,0,1,80.084,91.855,16.307,16.307,0,0,1,64.457,108.361Zm87.9-5.816a2.929,2.929,0,0,1-2.93,2.93H108.4a2.929,2.929,0,0,1-2.93-2.93v-5.86a2.929,2.929,0,0,1,2.93-2.93h41.018a2.929,2.929,0,0,1,2.93,2.93Zm58.6,0a2.929,2.929,0,0,1-2.93,2.93h-29.3a2.929,2.929,0,0,1-2.93-2.93v-5.86a2.929,2.929,0,0,1,2.93-2.93h29.3a2.929,2.929,0,0,1,2.93,2.93Zm0-35.158a2.929,2.929,0,0,1-2.93,2.93H108.4a2.929,2.929,0,0,1-2.93-2.93v-5.86a2.929,2.929,0,0,1,2.93-2.93H208.02a2.929,2.929,0,0,1,2.93,2.93Z" transform="translate(164.072 0) rotate(90)"/>
        <path id="Icon_awesome-money-check-alt-2" data-name="Icon awesome-money-check-alt" class="cls-4" d="M222.669,0H11.719A11.721,11.721,0,0,0,0,11.719V152.352a11.721,11.721,0,0,0,11.719,11.719H222.669a11.721,11.721,0,0,0,11.719-11.719V11.719A11.721,11.721,0,0,0,222.669,0ZM64.457,108.361v5.9a2.929,2.929,0,0,1-2.93,2.93h-5.86a2.929,2.929,0,0,1-2.93-2.93V108.3a20.97,20.97,0,0,1-11.489-4.157A2.934,2.934,0,0,1,41.04,99.7l4.3-4.105a3.006,3.006,0,0,1,3.71-.267,8.817,8.817,0,0,0,4.7,1.362H64.043a4.6,4.6,0,0,0,4.322-4.831,4.781,4.781,0,0,0-3.212-4.662l-16.48-4.944A16.574,16.574,0,0,1,37.107,66.357,16.309,16.309,0,0,1,52.734,49.851v-5.9a2.929,2.929,0,0,1,2.93-2.93h5.86a2.929,2.929,0,0,1,2.93,2.93v5.966A20.942,20.942,0,0,1,75.942,54.07a2.934,2.934,0,0,1,.209,4.446l-4.3,4.105a3.006,3.006,0,0,1-3.71.267,8.785,8.785,0,0,0-4.7-1.362H53.148a4.6,4.6,0,0,0-4.322,4.831,4.781,4.781,0,0,0,3.212,4.662l16.48,4.944A16.574,16.574,0,0,1,80.084,91.855,16.306,16.306,0,0,1,64.457,108.361Zm87.9-5.816a2.929,2.929,0,0,1-2.93,2.93H108.4a2.929,2.929,0,0,1-2.93-2.93v-5.86a2.929,2.929,0,0,1,2.93-2.93h41.018a2.929,2.929,0,0,1,2.93,2.93Zm58.6,0a2.929,2.929,0,0,1-2.93,2.93h-29.3a2.929,2.929,0,0,1-2.93-2.93v-5.86a2.929,2.929,0,0,1,2.93-2.93h29.3a2.929,2.929,0,0,1,2.93,2.93Zm0-35.158a2.929,2.929,0,0,1-2.93,2.93H108.4a2.929,2.929,0,0,1-2.93-2.93v-5.86a2.929,2.929,0,0,1,2.93-2.93H208.02a2.929,2.929,0,0,1,2.93,2.93Z" transform="translate(303.455 56.116) rotate(110)"/>
        <path id="Icon_awesome-money-check-alt-3" data-name="Icon awesome-money-check-alt" class="cls-5" d="M222.669,0H11.719A11.721,11.721,0,0,0,0,11.719V152.352a11.721,11.721,0,0,0,11.719,11.719H222.669a11.721,11.721,0,0,0,11.719-11.719V11.719A11.721,11.721,0,0,0,222.669,0ZM64.457,108.361v5.9a2.929,2.929,0,0,1-2.93,2.93h-5.86a2.929,2.929,0,0,1-2.93-2.93V108.3a20.97,20.97,0,0,1-11.489-4.157A2.934,2.934,0,0,1,41.04,99.7l4.3-4.105a3.006,3.006,0,0,1,3.71-.267,8.817,8.817,0,0,0,4.7,1.362H64.043a4.6,4.6,0,0,0,4.322-4.831,4.781,4.781,0,0,0-3.212-4.662l-16.48-4.944A16.574,16.574,0,0,1,37.107,66.357,16.309,16.309,0,0,1,52.734,49.851v-5.9a2.929,2.929,0,0,1,2.93-2.93h5.86a2.929,2.929,0,0,1,2.93,2.93v5.966A20.942,20.942,0,0,1,75.942,54.07a2.934,2.934,0,0,1,.209,4.446l-4.3,4.105a3.006,3.006,0,0,1-3.71.267,8.785,8.785,0,0,0-4.7-1.362H53.148a4.6,4.6,0,0,0-4.322,4.831,4.781,4.781,0,0,0,3.212,4.662l16.48,4.944A16.574,16.574,0,0,1,80.084,91.855,16.306,16.306,0,0,1,64.457,108.361Zm87.9-5.816a2.929,2.929,0,0,1-2.93,2.93H108.4a2.929,2.929,0,0,1-2.93-2.93v-5.86a2.929,2.929,0,0,1,2.93-2.93h41.018a2.929,2.929,0,0,1,2.93,2.93Zm58.6,0a2.929,2.929,0,0,1-2.93,2.93h-29.3a2.929,2.929,0,0,1-2.93-2.93v-5.86a2.929,2.929,0,0,1,2.93-2.93h29.3a2.929,2.929,0,0,1,2.93,2.93Zm0-35.158a2.929,2.929,0,0,1-2.93,2.93H108.4a2.929,2.929,0,0,1-2.93-2.93v-5.86a2.929,2.929,0,0,1,2.93-2.93H208.02a2.929,2.929,0,0,1,2.93,2.93Z" transform="translate(405.294 171.883) rotate(135)"/>
      </g>
      <path id="Subtraction_1" data-name="Subtraction 1" class="cls-6" d="M322.436,218.973H82.917A36.975,36.975,0,0,1,47.35,192.328L.647,23.183A20.619,20.619,0,0,1,0,18.247,18.357,18.357,0,0,1,18.425,0h.712V.181H389.5a18.392,18.392,0,0,1,15.855,18.067,16.254,16.254,0,0,1-.738,4.847l-46.7,169.144A36.747,36.747,0,0,1,322.436,218.973ZM202.683,73a36.5,36.5,0,1,0,36.849,36.493A36.721,36.721,0,0,0,202.683,73Z" transform="translate(0 228.78)"/>
    </g>
  </g>
</svg>
