<svg xmlns="http://www.w3.org/2000/svg" width="115.582" height="119.761" viewBox="0 0 115.582 119.761">
  <defs>
    <style>
      .cls-1 {
        fill: #8f00fa;
      }

      .cls-2 {
        fill: #b04afd;
      }

      .cls-3 {
        fill: #cc89ff;
      }

      .cls-4 {
        fill: #c77cff;
        stroke: #fff;
        stroke-linejoin: round;
        stroke-width: 0.5px;
      }
    </style>
  </defs>
  <g id="Group_12" data-name="Group 12" transform="translate(0.25)">
    <g id="Group_9" data-name="Group 9" transform="translate(7.154 0)">
      <path id="Icon_awesome-money-check-alt" data-name="Icon awesome-money-check-alt" class="cls-1" d="M59.433,0H3.128A3.128,3.128,0,0,0,0,3.128V40.665a3.128,3.128,0,0,0,3.128,3.128H59.433a3.128,3.128,0,0,0,3.128-3.128V3.128A3.128,3.128,0,0,0,59.433,0ZM17.2,28.923V30.5a.782.782,0,0,1-.782.782H14.858a.782.782,0,0,1-.782-.782V28.906A5.6,5.6,0,0,1,11.01,27.8a.783.783,0,0,1-.056-1.187l1.149-1.1a.8.8,0,0,1,.99-.071,2.353,2.353,0,0,0,1.253.364h2.748a1.229,1.229,0,0,0,1.153-1.289,1.276,1.276,0,0,0-.857-1.244l-4.4-1.32A4.424,4.424,0,0,1,9.9,17.712a4.353,4.353,0,0,1,4.171-4.406V11.73a.782.782,0,0,1,.782-.782h1.564a.782.782,0,0,1,.782.782v1.592a5.59,5.59,0,0,1,3.066,1.109.783.783,0,0,1,.056,1.187l-1.149,1.1a.8.8,0,0,1-.99.071,2.345,2.345,0,0,0-1.253-.364H14.186a1.229,1.229,0,0,0-1.153,1.289,1.276,1.276,0,0,0,.857,1.244l4.4,1.32a4.424,4.424,0,0,1,3.087,4.241A4.352,4.352,0,0,1,17.2,28.923Zm23.46-1.552a.782.782,0,0,1-.782.782H28.935a.782.782,0,0,1-.782-.782V25.807a.782.782,0,0,1,.782-.782H39.883a.782.782,0,0,1,.782.782Zm15.64,0a.782.782,0,0,1-.782.782H47.7a.782.782,0,0,1-.782-.782V25.807a.782.782,0,0,1,.782-.782h7.82a.782.782,0,0,1,.782.782Zm0-9.384a.782.782,0,0,1-.782.782H28.935a.782.782,0,0,1-.782-.782V16.422a.782.782,0,0,1,.782-.782H55.523a.782.782,0,0,1,.782.782Z" transform="translate(43.793 0) rotate(90)"/>
      <path id="Icon_awesome-money-check-alt-2" data-name="Icon awesome-money-check-alt" class="cls-2" d="M59.433,0H3.128A3.128,3.128,0,0,0,0,3.128V40.665a3.128,3.128,0,0,0,3.128,3.128H59.433a3.128,3.128,0,0,0,3.128-3.128V3.128A3.128,3.128,0,0,0,59.433,0ZM17.2,28.923V30.5a.782.782,0,0,1-.782.782H14.858a.782.782,0,0,1-.782-.782V28.906A5.6,5.6,0,0,1,11.01,27.8a.783.783,0,0,1-.056-1.187l1.149-1.1a.8.8,0,0,1,.99-.071,2.353,2.353,0,0,0,1.253.364h2.748a1.229,1.229,0,0,0,1.153-1.289,1.276,1.276,0,0,0-.857-1.244l-4.4-1.32A4.424,4.424,0,0,1,9.9,17.712a4.353,4.353,0,0,1,4.171-4.406V11.73a.782.782,0,0,1,.782-.782h1.564a.782.782,0,0,1,.782.782v1.592a5.59,5.59,0,0,1,3.066,1.109.783.783,0,0,1,.056,1.187l-1.149,1.1a.8.8,0,0,1-.99.071,2.345,2.345,0,0,0-1.253-.364H14.186a1.229,1.229,0,0,0-1.153,1.289,1.276,1.276,0,0,0,.857,1.244l4.4,1.32a4.424,4.424,0,0,1,3.087,4.241A4.352,4.352,0,0,1,17.2,28.923Zm23.46-1.552a.782.782,0,0,1-.782.782H28.935a.782.782,0,0,1-.782-.782V25.807a.782.782,0,0,1,.782-.782H39.883a.782.782,0,0,1,.782.782Zm15.64,0a.782.782,0,0,1-.782.782H47.7a.782.782,0,0,1-.782-.782V25.807a.782.782,0,0,1,.782-.782h7.82a.782.782,0,0,1,.782.782Zm0-9.384a.782.782,0,0,1-.782.782H28.935a.782.782,0,0,1-.782-.782V16.422a.782.782,0,0,1,.782-.782H55.523a.782.782,0,0,1,.782.782Z" transform="translate(80.996 14.978) rotate(110)"/>
      <path id="Icon_awesome-money-check-alt-3" data-name="Icon awesome-money-check-alt" class="cls-3" d="M59.433,0H3.128A3.128,3.128,0,0,0,0,3.128V40.665a3.128,3.128,0,0,0,3.128,3.128H59.433a3.128,3.128,0,0,0,3.128-3.128V3.128A3.128,3.128,0,0,0,59.433,0ZM17.2,28.923V30.5a.782.782,0,0,1-.782.782H14.858a.782.782,0,0,1-.782-.782V28.906A5.6,5.6,0,0,1,11.01,27.8a.783.783,0,0,1-.056-1.187l1.149-1.1a.8.8,0,0,1,.99-.071,2.353,2.353,0,0,0,1.253.364h2.748a1.229,1.229,0,0,0,1.153-1.289,1.276,1.276,0,0,0-.857-1.244l-4.4-1.32A4.424,4.424,0,0,1,9.9,17.712a4.353,4.353,0,0,1,4.171-4.406V11.73a.782.782,0,0,1,.782-.782h1.564a.782.782,0,0,1,.782.782v1.592a5.59,5.59,0,0,1,3.066,1.109.783.783,0,0,1,.056,1.187l-1.149,1.1a.8.8,0,0,1-.99.071,2.345,2.345,0,0,0-1.253-.364H14.186a1.229,1.229,0,0,0-1.153,1.289,1.276,1.276,0,0,0,.857,1.244l4.4,1.32a4.424,4.424,0,0,1,3.087,4.241A4.352,4.352,0,0,1,17.2,28.923Zm23.46-1.552a.782.782,0,0,1-.782.782H28.935a.782.782,0,0,1-.782-.782V25.807a.782.782,0,0,1,.782-.782H39.883a.782.782,0,0,1,.782.782Zm15.64,0a.782.782,0,0,1-.782.782H47.7a.782.782,0,0,1-.782-.782V25.807a.782.782,0,0,1,.782-.782h7.82a.782.782,0,0,1,.782.782Zm0-9.384a.782.782,0,0,1-.782.782H28.935a.782.782,0,0,1-.782-.782V16.422a.782.782,0,0,1,.782-.782H55.523a.782.782,0,0,1,.782.782Z" transform="translate(108.178 45.878) rotate(135)"/>
    </g>
    <path id="Subtraction_1" data-name="Subtraction 1" class="cls-4" d="M86.062,58.447H22.132a9.869,9.869,0,0,1-9.493-7.112L.173,6.188A5.5,5.5,0,0,1,0,4.87,4.9,4.9,0,0,1,4.918,0h.19V.048h98.854a4.909,4.909,0,0,1,4.232,4.822,4.338,4.338,0,0,1-.2,1.294L95.531,51.311A9.808,9.808,0,0,1,86.062,58.447ZM54.1,19.485a9.741,9.741,0,1,0,9.835,9.741A9.8,9.8,0,0,0,54.1,19.485Z" transform="translate(0 61.064)"/>
  </g>
</svg>
